<svg width="1920" height="1080" viewBox="0 0 1920 1080" fill="none" xmlns="http://www.w3.org/2000/svg">
<g style="mix-blend-mode:exclusion" opacity="0.35" clip-path="url(#clip0_305_104)">
<circle cx="1949" cy="471" r="130" fill="#194E5B"/>
<circle cx="1057" cy="924" r="130" fill="#194E5B"/>
<path d="M218.232 132.407C210.718 112.321 230.321 92.7175 250.407 100.232L320.24 126.357C325.889 128.471 332.111 128.471 337.76 126.357L407.593 100.232C427.679 92.7175 447.282 112.321 439.768 132.407L413.643 202.24C411.529 207.889 411.529 214.111 413.643 219.76L439.768 289.593C447.282 309.679 427.679 329.282 407.593 321.768L337.76 295.643C332.111 293.529 325.889 293.529 320.24 295.643L250.407 321.768C230.321 329.282 210.718 309.679 218.232 289.593L244.357 219.76C246.471 214.111 246.471 207.889 244.357 202.24L218.232 132.407Z" fill="#995244"/>
<path d="M1293.1 22.7511C1273.59 13.8617 1273.59 -13.8617 1293.1 -22.7511L1360.95 -53.6573C1366.44 -56.1572 1370.84 -60.557 1373.34 -66.0455L1404.25 -133.899C1413.14 -153.415 1440.86 -153.415 1449.75 -133.899L1480.66 -66.0456C1483.16 -60.557 1487.56 -56.1572 1493.05 -53.6573L1560.9 -22.7511C1580.41 -13.8617 1580.41 13.8617 1560.9 22.7511L1493.05 53.6573C1487.56 56.1572 1483.16 60.557 1480.66 66.0455L1449.75 133.899C1440.86 153.415 1413.14 153.415 1404.25 133.899L1373.34 66.0456C1370.84 60.557 1366.44 56.1572 1360.95 53.6573L1293.1 22.7511Z" fill="#995244"/>
<path d="M1768.23 938.407C1760.72 918.321 1780.32 898.718 1800.41 906.232L1870.24 932.357C1875.89 934.471 1882.11 934.471 1887.76 932.357L1957.59 906.232C1977.68 898.718 1997.28 918.321 1989.77 938.407L1963.64 1008.24C1961.53 1013.89 1961.53 1020.11 1963.64 1025.76L1989.77 1095.59C1997.28 1115.68 1977.68 1135.28 1957.59 1127.77L1887.76 1101.64C1882.11 1099.53 1875.89 1099.53 1870.24 1101.64L1800.41 1127.77C1780.32 1135.28 1760.72 1115.68 1768.23 1095.59L1794.36 1025.76C1796.47 1020.11 1796.47 1013.89 1794.36 1008.24L1768.23 938.407Z" fill="#995244"/>
<circle cx="-14" cy="968" r="130" fill="#194E5B"/>
</g>
<defs>
<clipPath id="clip0_305_104">
<rect width="1920" height="1080" fill="white"/>
</clipPath>
</defs>
</svg>
